<svg xmlns="http://www.w3.org/2000/svg" viewBox="0 0 25.19 27.4"><defs><style>.cls-1{fill:#01fec5;}</style></defs><title>Asset 9</title><g id="Layer_2" data-name="Layer 2"><g id="Layer_1-2" data-name="Layer 1"><g id="_Group_" data-name="&lt;Group&gt;"><path id="_Compound_Path_" data-name="&lt;Compound Path&gt;" class="cls-1" d="M4.55,9.85a2.8,2.8,0,0,1-.06,1.61s1,.06,1.56-1.5.11-2.11,1.22-3.5,4-1.13,5.37.72h0a2.81,2.81,0,0,1,1.49,5.2l-.18.11h0a.8.8,0,0,0-.39.32.52.52,0,0,0,.25.76.53.53,0,0,0,.46,0,3.07,3.07,0,0,0,1.49-1.46.64.64,0,0,0,.53.1.54.54,0,0,0,.35-.28,3.17,3.17,0,0,0,0-2.66A.54.54,0,0,0,17.3,9a.53.53,0,0,0,0-.46,3.69,3.69,0,0,0-4.63-1.32C14,5.33,16.9,5.07,18,6.46s.62,1.93,1.21,3.5,1.57,1.5,1.57,1.5a2.84,2.84,0,0,1-.07-1.61c1,3.78,2.91,2.3,2.91,2.3C20.21,6.06,12.64,0,12.64,0s-7.58,6.06-11,12.15C1.64,12.15,3.59,13.63,4.55,9.85Zm8.09-6.27c2,2.27-2,2.28,0,0Zm1.45-.52a.6.6,0,0,1,.27.6c-.07.45-.63.83-1.7-.09C13.34,3,13.82,2.91,14.09,3.06Zm-1.45.49c-2-2.27,2-2.28,0,0Zm0,0c-2.27,2-2.28-2,0,0Z"/><path id="_Path_" data-name="&lt;Path&gt;" class="cls-1" d="M8,8.5A.57.57,0,0,0,8,9a.54.54,0,0,0,.68.34,3.17,3.17,0,0,0,0,2.66.54.54,0,0,0,.35.28.65.65,0,0,0,.53-.1A3,3,0,0,0,11,13.6a.51.51,0,0,0,.45,0,.53.53,0,0,0,.26-.76.8.8,0,0,0-.39-.32h0l-.19-.11a2.81,2.81,0,0,1,1.5-5.2A3.71,3.71,0,0,0,8,8.5Z"/><path id="_Path_2" data-name="&lt;Path&gt;" class="cls-1" d="M24.27,13.59A.94.94,0,0,0,24,14.88c-.29,0-.57.29-.23.76.48.69,1,1.72.48,3.94a6.16,6.16,0,0,1-5.74,3.93,4.65,4.65,0,0,1-.75-.06,4.69,4.69,0,0,1-3.68-4.37A2,2,0,0,0,14,21a2.49,2.49,0,0,1-.8-2.37c.25-1.6-.61-1.8-.61-1.8s-.85.2-.6,1.8a2.49,2.49,0,0,1-.8,2.37,2,2,0,0,0-.1-1.89,4.69,4.69,0,0,1-3.68,4.37,4.65,4.65,0,0,1-.75.06A6.16,6.16,0,0,1,.92,19.58c-.56-2.22,0-3.25.48-3.94.34-.47.06-.78-.23-.76a.94.94,0,0,0-.25-1.29A9.29,9.29,0,0,0,0,17.34,6.66,6.66,0,0,0,6.66,24h.53a7.68,7.68,0,0,0,4.86-2.75,19.07,19.07,0,0,1-2.22,3.13,4.44,4.44,0,0,0,1.91,0,3.21,3.21,0,0,1-2.59.37h0a.58.58,0,0,0-.43,0,.57.57,0,0,0-.29.77.53.53,0,0,0,.23.26A3.63,3.63,0,0,1,8,25.75h0a.8.8,0,0,0-.6.09A.82.82,0,0,0,7.06,27a.8.8,0,0,0,.51.37,3.94,3.94,0,0,0,3.52-1.26c-.52.77-.93,1.32-.93,1.32H15s-.41-.55-.93-1.32a3.94,3.94,0,0,0,3.52,1.26.8.8,0,0,0,.51-.37.82.82,0,0,0-.28-1.13.8.8,0,0,0-.6-.09h0a3.63,3.63,0,0,1-.69.06.53.53,0,0,0,.23-.26.57.57,0,0,0-.29-.77.58.58,0,0,0-.43,0h0a3.21,3.21,0,0,1-2.59-.37,4.44,4.44,0,0,0,1.91,0,19.07,19.07,0,0,1-2.22-3.13A7.68,7.68,0,0,0,18,24h.53a6.66,6.66,0,0,0,6.66-6.66A9.29,9.29,0,0,0,24.27,13.59Z"/><path class="cls-1" d="M19,14.55a3.63,3.63,0,1,0,3.63,3.63A3.62,3.62,0,0,0,19,14.55Zm0,5.92a2.3,2.3,0,1,1,2.3-2.29A2.29,2.29,0,0,1,19,20.47Z"/><path class="cls-1" d="M6.13,14.55a3.63,3.63,0,1,0,3.62,3.63A3.62,3.62,0,0,0,6.13,14.55Zm0,5.92a2.3,2.3,0,1,1,2.29-2.29A2.29,2.29,0,0,1,6.13,20.47Z"/></g></g></g></svg>