<svg width="106" height="40" viewBox="0 0 106 40" fill="none" xmlns="http://www.w3.org/2000/svg">
<mask id="mask0_1447_1393" style="mask-type:alpha" maskUnits="userSpaceOnUse" x="36" y="0" width="70" height="38">
<path d="M77.0718 15.7746L80.136 0L47.988 5.22407V3.07298L38.9512 4.55826V6.65813L36.1987 7.11908L36.1467 37.644L74.1634 30.781L74.2153 33.137L106 27.8617V10.8579L77.0718 15.7746Z" fill="white"/>
</mask>
<g mask="url(#mask0_1447_1393)">
<path d="M76.9245 15.746L76.8832 15.9589L77.0969 15.9225L105.85 11.0355V27.7346L74.3615 32.9607L74.3134 30.7777L74.3095 30.6022L74.1367 30.6334L36.297 37.4645L36.3484 7.24608L38.976 6.80607L39.1012 6.7851V6.65813V4.68562L47.838 3.24965V5.22407V5.40041L48.012 5.37213L79.9477 0.182561L76.9245 15.746Z" fill="white" stroke="#00B300" stroke-width="0.3"/>
</g>
<path d="M46.6896 13.726C48.0919 13.2138 48.767 12.3431 48.767 11.0627C48.767 10.192 48.4554 9.57744 47.8322 9.27014C47.3128 8.96284 46.5338 8.86041 45.599 9.01406V6.91418L43.7812 7.22148V9.32136L43.1061 9.42379V7.37513L41.2364 7.68243V9.7823L39.5745 10.0896V20.3841L41.2364 20.0768V21.7669L43.0541 21.4596V19.7183L43.7293 19.6158V21.306L45.547 20.9987V19.3086C46.6896 19.0525 47.5206 18.6427 48.0919 18.0281C48.7151 17.3623 49.0267 16.5941 49.0267 15.6722C49.0267 15.0576 48.819 14.5454 48.4554 14.1869C48.0399 13.726 47.4686 13.6235 46.6896 13.726ZM43.158 12.1383L44.0928 11.9846C44.5083 11.8822 44.8199 11.8822 44.9757 11.9846C45.1315 12.0358 45.2354 12.1895 45.2354 12.3943C45.2354 12.6504 45.1315 12.8553 44.9757 12.9577C44.8199 13.0602 44.5083 13.1626 44.0928 13.265L43.158 13.4187V12.1383ZM43.158 15.6722L44.1967 15.4673C44.6641 15.3649 44.9757 15.3649 45.1315 15.4161C45.2874 15.4673 45.3912 15.621 45.3912 15.9283C45.3912 16.1844 45.2874 16.3892 45.0796 16.4917C44.8719 16.6453 44.5083 16.7477 43.989 16.8502L43.158 17.0038V15.6722Z" fill="black"/>
<path d="M49.7014 18.5403L53.285 17.8745V7.63123L49.7014 8.24582V18.5403Z" fill="black"/>
<path d="M57.9073 6.7605L54.3237 7.42631V17.6696L61.7505 16.3892V13.1625L57.9073 13.8284V6.7605Z" fill="black"/>
<path d="M66.1131 5.32642L62.5295 5.94101V16.2355L69.9563 14.9039V11.6772L66.1131 12.3431V5.32642Z" fill="black"/>
<path d="M74.3188 3.84118L73.1242 6.91416L71.8259 4.30212L67.7749 5.01915L71.3065 11.3188V14.6478L74.89 14.0332V10.7042L78.3697 3.12415L74.3188 3.84118Z" fill="black"/>
<path d="M46.5334 27.4008C47.9356 26.8886 48.6108 26.0179 48.6108 24.7375C48.6108 23.8668 48.2992 23.2522 47.6759 22.9449C47.0527 22.5864 46.1698 22.5352 45.0272 22.7401L39.4182 23.7644V34.0589L44.9753 33.0858C46.3775 32.8297 47.3643 32.3687 47.9875 31.7541C48.6108 31.0883 48.9224 30.3201 48.9224 29.3982C48.9224 28.7836 48.7146 28.2714 48.3511 27.9129C47.9356 27.4008 47.3643 27.2983 46.5334 27.4008ZM43.0537 25.7618L43.9885 25.6082C44.404 25.5057 44.7156 25.5057 44.8714 25.6082C45.0272 25.6594 45.1311 25.813 45.1311 26.0179C45.1311 26.274 45.0272 26.4789 44.8714 26.5813C44.7156 26.6837 44.404 26.7862 43.9885 26.8886L43.0537 27.0422V25.7618ZM44.9753 30.1664C44.7675 30.3201 44.404 30.4225 43.8846 30.525L43.0537 30.6786V29.347L44.0924 29.1421C44.5598 29.0397 44.8714 29.0397 45.0272 29.0909C45.183 29.1421 45.2869 29.2958 45.2869 29.6031C45.2869 29.8079 45.183 30.0128 44.9753 30.1664Z" fill="black"/>
<path d="M49.5979 32.1639L53.1814 31.5493V21.2548L49.5979 21.9206V32.1639Z" fill="black"/>
<path d="M57.7513 20.4353L54.2197 21.0499V31.3444L61.5945 30.0128V26.7861L57.7513 27.5032V20.4353Z" fill="black"/>
<path d="M66.0096 18.95L62.426 19.6158V29.859L69.8008 28.5786V25.352L66.0096 26.0178V18.95Z" fill="black"/>
<path d="M70.6313 28.4251L74.2149 27.7593V17.516L70.6313 18.1306V28.4251Z" fill="black"/>
<path d="M85.7961 19.2061C84.8613 18.4379 83.459 18.233 81.5894 18.5915C79.8236 18.8988 78.4733 19.6158 77.5384 20.6914C76.6036 21.7669 76.0842 23.201 76.0842 24.9424C76.0842 26.7349 76.5516 27.9641 77.4865 28.6811C78.4213 29.3982 79.8236 29.603 81.6413 29.2957C85.2768 28.6299 87.0945 26.5301 87.0945 22.9449C87.1465 21.2036 86.679 19.9231 85.7961 19.2061ZM82.9916 25.4545C82.732 25.8642 82.2645 26.1715 81.6932 26.274C81.122 26.3764 80.6545 26.274 80.3949 25.9155C80.0833 25.5569 79.9274 24.9936 79.9274 24.2765C79.9274 22.6888 80.4987 21.8182 81.6413 21.6133C82.8358 21.4084 83.4071 22.0742 83.4071 23.6619C83.3552 24.379 83.2513 24.9936 82.9916 25.4545Z" fill="black"/>
<path d="M94.5216 21.5109L91.7171 16.9526L87.9778 17.6184V27.9129L91.4055 27.2983V22.0743L94.3658 26.7862L97.9494 26.1204V15.8771L94.5216 16.4917V21.5109Z" fill="black"/>
<path d="M102.364 22.6888C102 22.4327 101.533 22.3815 100.961 22.4839C100.338 22.5863 99.8708 22.8424 99.5592 23.2009C99.2476 23.5595 99.0918 24.0204 99.0918 24.5326C99.0918 25.0447 99.2476 25.4032 99.6112 25.6593C99.9747 25.9154 100.442 25.9666 101.013 25.8642C101.637 25.7618 102.104 25.5057 102.468 25.1984C102.779 24.8399 102.987 24.4301 102.987 23.8668C102.883 23.3034 102.727 22.8936 102.364 22.6888Z" fill="black"/>
<path d="M102.363 21.4596L102.935 14.9551L98.9875 15.6721L99.5588 21.9717L102.363 21.4596Z" fill="black"/>
<path d="M29.9144 23.8669C31.1609 22.0743 31.3686 20.1281 31.057 18.0282C30.9012 17.1575 30.3299 16.6454 29.3951 16.5941C29.0315 16.5941 28.668 16.6454 28.3044 16.5941C28.0967 16.5429 27.889 16.4405 27.7851 16.2356C27.3696 15.3137 26.7464 14.6479 25.8635 14.187C25.7077 14.0845 25.4999 13.9821 25.448 13.8284C25.3961 13.726 25.3441 13.6236 25.2922 13.5212C26.5906 12.1383 27.6812 10.1409 28.2006 7.32397C24.3054 8.60438 22.8512 7.06789 18.8522 6.24842C17.6058 5.94112 16.2035 5.83869 14.7493 5.78748C14.6974 5.78748 14.6974 5.78748 14.6455 5.78748C14.4377 5.78748 14.23 5.78748 14.0222 5.78748C13.3471 5.78748 12.7758 5.88991 12.3084 5.99234C9.34805 6.45329 6.80322 7.7337 4.88161 10.0384C2.12904 13.3163 1.29807 17.0551 1.9213 21.2036C1.97323 21.6133 1.97323 21.9206 1.60969 22.2279C0.830656 22.8938 0.363239 23.7644 0.155497 24.7375C-0.727403 28.7324 2.70033 33.0346 6.75128 32.7273C7.0629 32.7273 7.27064 32.7273 7.42644 33.0346C10.3868 38.1562 14.9051 40.3585 20.7738 39.8976C25.1883 39.5391 28.7719 36.671 30.0183 32.5736C30.8493 29.8592 30.6415 27.0935 29.9144 24.379C29.8625 24.2254 29.8106 23.9693 29.9144 23.8669Z" fill="white"/>
<path d="M17.0869 15.4674C15.9443 15.5186 15.0095 15.9284 14.2304 16.6966C14.0746 16.8502 14.0746 17.2088 14.0227 17.4648C14.2824 17.4648 14.5421 17.5161 14.7498 17.3624C15.5288 16.9015 16.3598 16.7478 17.2946 16.9527C17.5024 17.0039 17.7101 17.0551 17.8659 17.0551C18.2814 17.1063 18.6449 16.9527 18.6969 16.4917C18.8008 16.0308 18.5411 15.7747 18.1256 15.6723C17.8659 15.6211 17.4504 15.5698 17.0869 15.4674Z" fill="black"/>
<path d="M23.2671 29.5006C23.371 29.0909 23.5787 28.7324 23.7345 28.3227C24.0462 27.452 24.4616 26.735 25.5523 26.7862C25.7081 26.7862 25.8639 26.4789 26.0197 26.3252C25.812 26.274 25.5523 26.1204 25.3965 26.1204C23.371 26.5301 21.3455 26.6325 19.32 26.2228C18.3852 26.0179 17.4504 25.7618 16.5155 25.5058C16.5155 25.4545 16.5155 25.3521 16.5155 25.3009C16.7233 25.1473 16.8791 24.9424 17.0868 24.7887C16.3597 24.7375 15.6326 24.7887 15.0094 24.9424C13.8668 25.2497 13.6591 26.0691 14.4901 26.991C14.7497 26.7862 15.0613 26.5813 15.2691 26.3764C15.6326 26.0179 15.9962 25.9667 16.4636 26.1716C18.2294 26.8374 20.0991 27.1447 21.9687 27.1447C22.4881 27.1447 23.0074 27.1447 23.5787 27.1447C23.4749 27.452 23.3191 27.6569 23.2152 27.9129C23.0594 28.5275 22.6439 28.6812 22.0207 28.6812C19.9952 28.63 18.1255 28.0154 16.3597 27.0935C16.3078 27.1447 16.2559 27.1959 16.152 27.2471C16.7233 27.9129 17.2426 28.6812 17.9178 29.2958C19.0084 30.3201 20.3068 30.7811 21.8129 30.6274C22.592 30.6274 23.0074 30.2177 23.2671 29.5006Z" fill="black"/>
<path d="M22.0207 33.2906C22.5401 33.0858 22.7998 32.7785 22.644 32.2151C21.5014 32.2151 20.3588 32.2151 19.1643 32.2151C19.8914 33.1882 21.0859 33.6491 22.0207 33.2906Z" fill="black"/>
<path d="M29.4992 19.2062C29.4473 18.0282 29.6031 18.2331 28.3566 18.1819C26.487 18.1819 24.6173 18.1819 22.7476 18.1819C22.6957 17.3624 22.9034 17.0039 23.5786 16.799C24.3057 16.5941 24.877 16.8502 25.5002 17.1575C25.656 17.26 25.9157 17.2087 26.1234 17.2087C26.1234 16.9527 26.1754 16.6966 26.0715 16.5429C25.656 15.7235 24.6692 15.2625 23.7863 15.4162C22.7476 15.621 22.0205 16.3893 21.8647 17.4136C21.7089 18.4892 22.0205 19.3598 22.6957 20.2305C23.1112 20.7427 23.5266 21.3061 23.7863 21.9207C24.046 22.5352 23.8902 23.1498 23.3708 23.6108C22.8515 24.0205 22.2802 24.0205 21.657 23.7644C21.5531 23.7132 21.5012 23.6108 21.3973 23.6108C21.1376 23.662 20.7741 23.6108 20.6183 23.8157C20.4105 24.123 20.5663 24.4303 20.8779 24.5839C21.8128 24.9936 22.6957 25.0449 23.6305 24.5327C23.8902 24.379 24.2537 24.2766 24.5654 24.3278C26.6947 24.6351 28.5124 23.6108 29.0837 21.5621C29.4473 20.7939 29.5511 20.0256 29.4992 19.2062ZM26.1234 23.2523C25.8118 23.3035 25.5002 23.3547 25.1366 23.3035L26.7986 19.2062C27.1621 19.2062 27.4737 19.2062 27.8373 19.2062L26.1234 23.2523Z" fill="black"/>
<path d="M5.29717 24.5839C4.3104 24.6351 3.68718 25.3009 3.79105 26.4277C4.98556 24.9936 6.0762 25.7106 7.16685 26.4789C7.21878 25.4545 6.33588 24.5839 5.29717 24.5839Z" fill="black"/>
<path d="M6.12808 28.4251C6.75131 28.6812 7.3226 28.4763 7.89389 27.9642C6.95905 27.6569 6.18002 27.4008 5.29712 27.0935C5.34905 27.7593 5.60873 28.169 6.12808 28.4251Z" fill="black"/>
<path d="M27.7851 24.6863C27.6812 24.8912 27.4735 25.1473 27.5254 25.3521C27.7332 26.8374 27.889 28.3739 27.6812 29.9104C27.3177 32.1639 26.3828 34.1614 24.4093 35.4418C22.0722 36.9783 19.4754 37.2856 16.7748 36.6197C13.3471 35.8003 10.8542 33.8028 9.34805 30.6274C9.24418 30.4738 9.24418 30.1153 9.34805 30.0128C9.60773 29.7567 9.81547 29.5007 9.50386 29.2446C9.34805 29.1422 8.9845 29.2446 8.72483 29.2958C8.1016 29.5007 7.47838 29.9104 6.85516 29.9616C4.93355 30.1665 3.11581 28.4763 2.90807 26.4277C2.75227 25.1985 3.21968 24.2766 4.20646 23.8156C5.19323 23.3547 6.28387 23.5083 7.16677 24.379C7.53032 24.7375 7.84193 25.1473 8.20548 25.6082C8.88063 25.2497 9.55579 24.8912 10.231 24.5327C9.97128 23.8669 9.7116 23.3035 9.50386 22.7401C9.45192 22.5865 9.50386 22.3304 9.60773 22.2792C10.5945 21.6646 11.6332 21.05 12.6719 20.3841C12.7758 20.8963 12.8797 21.3573 13.0355 21.767C13.6067 23.4571 14.8013 24.3278 16.619 24.4302C18.2809 24.5327 19.7351 23.7132 20.5141 22.2279C21.1374 20.9987 21.1893 19.6671 20.9296 18.2843C18.2809 18.2843 15.5803 18.2843 12.9835 18.2843C12.8277 18.5916 12.7758 19.0013 12.568 19.155C11.5293 19.872 10.4906 20.4866 9.45192 21.1012C9.34805 21.05 9.24418 20.9987 9.19225 20.9987C9.39999 20.4866 9.55579 19.9744 9.81547 19.5135C10.4387 18.3867 10.3868 17.1575 9.08838 16.3381C8.67289 16.082 8.30935 15.621 8.15354 15.1601C7.78999 14.0845 8.30935 13.2139 9.45192 12.7017C10.6464 12.1895 11.8929 12.292 13.0874 12.5993C14.6455 12.9578 16.2035 13.4699 17.8135 13.7772C17.8135 13.7772 17.9693 13.8284 18.2809 13.8797C19.2158 14.0333 20.2025 14.0845 21.1374 13.8284C21.7087 13.726 22.3319 13.5212 22.9032 13.2139C23.2148 13.9309 23.5264 14.5967 23.8899 15.3137C24.3574 14.3406 24.0457 13.5212 23.1628 13.0602C24.3574 12.3944 25.3441 11.1652 25.7596 9.11654C24.0977 9.6287 22.8512 9.06532 18.3329 7.68248C18.1771 7.68248 18.0213 7.68248 17.9174 7.63127C15.4245 7.06789 12.8797 7.27275 10.3868 8.14343C5.34903 9.88479 3.06388 14.904 3.37549 19.6159C3.42743 20.589 3.6871 21.5621 3.84291 22.5865C1.45388 23.7644 1.29808 25.9155 1.9213 27.6569C2.33678 28.8349 3.06388 29.808 4.20646 30.4738C5.4529 31.242 6.80322 31.2932 8.15354 30.7811C8.41322 31.3445 8.67289 31.9078 8.93257 32.42C11.3216 36.7734 16.3593 39.1293 21.3451 38.2075C24.3054 37.6441 26.5906 36.1588 27.9409 33.4443C29.2393 30.7299 29.0835 27.9642 28.3564 25.0961C28.3564 24.9424 27.9928 24.84 27.7851 24.6863ZM17.9693 19.2062C18.3329 19.2062 18.6964 19.2062 19.06 19.2062L17.45 23.3035C17.0864 23.4059 16.6709 23.4059 16.3593 23.3035L17.9693 19.2062Z" fill="black"/>
</svg>
