<svg fill="none" height="22" viewBox="0 0 121 22" width="121" xmlns="http://www.w3.org/2000/svg" xmlns:xlink="http://www.w3.org/1999/xlink"><clipPath id="a"><path d="m0 0h121v22h-121z"/></clipPath><g clip-path="url(#a)"><path d="m44.8309.820226c.4545-1.093635 2.0035-1.093635 2.4585 0l2.0807 5.002194c.094.22607.2485.42184.4466.56579.198.14396.4319.23051.676.25015l5.4004.43289c1.1804.09472 1.6593 1.56799.7597 2.33829l-4.1144 3.52436c-.186.1593-.3244.3668-.4001.5996-.0757.2329-.0857.4822-.029.7204l1.2572 5.27c.2747 1.1522-.9783 2.0625-1.989 1.4455l-4.6234-2.8249c-.209-.1277-.4492-.1953-.6942-.1953s-.4852.0676-.6942.1953l-4.6233 2.8241c-1.0104.6174-2.2634-.2929-1.9891-1.4451l1.2572-5.2696c.0568-.2382.0468-.4875-.0289-.7204-.0757-.2328-.2142-.4403-.4002-.5996l-4.1143-3.52436c-.8993-.77068-.4208-2.24357.7596-2.33829l5.4005-.43289c.2441-.01957.4781-.1061.6762-.25005.1981-.14396.3527-.33977.4467-.56589z" fill="#e31351"/><g fill="#fff"><path d="m10.2223 13.9984c0-1.4008-.27877-2.5107-.835-3.3298-.55723-.81852-1.4366-1.22721-2.64043-1.22721-.5469 0-1.06278.08212-1.54532.24541-.48419.16328-.87102.3463-1.16314.5458v8.2128c.23743.0546.54255.1058.91704.1506.37283.0459.82502.0679 1.35457.0679 1.22151 0 2.17924-.4137 2.87219-1.2412.69296-.8271 1.04009-1.9685 1.04009-3.4243zm3.3917.0539c0 1.1468-.169 2.1787-.5062 3.0971-.3371.9189-.8207 1.7054-1.4495 2.3603-.6296.6552-1.3916 1.1554-2.28501 1.5016-.89403.3446-1.90579.5175-3.03659.5175-1.09446 0-2.13789-.0818-3.13298-.2454-.99375-.164-1.81909-.3453-2.475693-.5455v-20.191469l3.310383-.546431v7.39495c.38282-.20014.85269-.3821 1.40859-.54538.55756-.16432 1.17249-.2455 1.84709-.2455 1.00309 0 1.90146.17734 2.69547.53153.79294.35485 1.45434.85904 1.98344 1.51492.5286.65417.9342 1.44138 1.2169 2.35898.2828.9196.4241 1.934.4241 3.0428z"/><path d="m19.7699 21.1741h-3.3104v-14.2705h3.3104zm.3558-18.44442c0 .61794-.2007 1.10883-.6023 1.47334-.4014.36384-.8753.54542-1.4222.54542-.5656 0-1.0491-.18158-1.4505-.54542-.4012-.36451-.6024-.8554-.6024-1.47334 0-.63657.2012-1.13711.6024-1.50162.4014-.36351.8849-.545443 1.4505-.545443.5469 0 1.0208.181933 1.4222.545443.4016.36451.6023.86505.6023 1.50162z"/><path d="m23.2173 3.13806 3.3107-.54577v4.31093h5.0884v2.75614h-5.0884v5.81214c0 1.1451.1825 1.9636.5469 2.4552.3648.4915.9847.737 1.8604.737.6023 0 1.1359-.0635 1.6007-.1916.4649-.127.8337-.2451 1.1085-.3539l.5466 2.6195c-.3829.1633-.8851.3319-1.505.5048-.6203.1724-1.3502.2584-2.1886.2584-1.0215 0-1.8738-.1367-2.5581-.4093-.6836-.2728-1.2261-.6676-1.628-1.1864-.4009-.5185-.6836-1.1461-.848-1.883-.1644-.7364-.2461-1.5778-.2461-2.5233z"/><path d="m65.8736 18.6094c1.2402 0 2.1433-.2092 2.7088-.6276.5646-.4184.848-1.0091.848-1.7737 0-.4547-.095-.8458-.2877-1.1734-.1914-.3272-.4639-.623-.8198-.887-.356-.263-.7899-.5085-1.3005-.7363-.5105-.2268-1.0938-.45-1.7507-.6692-.6566-.2358-1.2905-.4952-1.9012-.7769-.6115-.2817-1.149-.6326-1.6139-1.0513-.4652-.4177-.8387-.91797-1.1222-1.50069-.2831-.58102-.4238-1.28177-.4238-2.10018 0-1.70951.593-3.05183 1.7791-4.02463 1.1841-.97314 2.7989-1.46038 4.8417-1.46038 1.1855 0 2.2386.13238 3.1602.39644.9205.26375 1.6455.5501 2.1746.85973l-1.0664 2.78273c-.6206-.34523-1.3005-.60929-2.0385-.79188-.7384-.18093-1.5003-.27272-2.2846-.27272-.9304 0-1.6547.19123-2.1749.57371-.5196.38147-.7797.91826-.7797 1.6094 0 .41839.0864.77787.2601 1.07786.1727.29998.4189.56838.7383.80416.3195.23748.693.45563 1.1215.65588.4285.19958.8984.39114 1.41.57207.8923.3286 1.6906.6605 2.3932.9968.7023.3366 1.2952.7363 1.7784 1.2006.4836.4643.8524 1.0097 1.1075 1.637.2548.6276.3838 1.3876.3838 2.2782 0 1.7101-.6069 3.0341-1.8197 3.97-1.2135.9376-2.9866 1.4055-5.3216 1.4055-.7843 0-1.5003-.0502-2.1472-.15-.6473-.1-1.2222-.2228-1.7234-.3682-.5025-.1456-.9357-.296-1.3002-.4502-.3648-.1547-.6562-.2958-.8747-.4231l1.0118-2.8107c.4928.2728 1.1578.5458 1.9978.8185.8384.2728 1.8501.4095 3.0359.4095z"/><path d="m75.1206 3.13806 3.3097-.54577v4.31093h5.0895v2.75614h-5.0895v5.81214c0 1.1451.1824 1.9636.548 2.4552.3644.4915.9851.737 1.86.737.6017 0 1.1356-.0635 1.6007-.1916.4649-.127.8341-.2451 1.1078-.3539l.5469 2.6195c-.3825.1633-.8844.3319-1.5043.5048-.6203.1724-1.3495.2584-2.1886.2584-1.0214 0-1.8741-.1367-2.5574-.4093-.6853-.2728-1.2278-.6676-1.6286-1.1864-.4012-.5185-.6843-1.1461-.848-1.883-.1638-.7364-.2462-1.5778-.2462-2.5233z"/><path d="m91.1534 18.8549c1.0215 0 1.7961-.0549 2.3254-.1633v-3.6568c-.1822-.0545-.447-.1087-.793-.1632-.3468-.0545-.7297-.0822-1.1492-.0822-.3645 0-.7336.0277-1.1081.0822-.3746.0545-.7116.1536-1.0118.3003-.3008.1453-.5432.3502-.725.6133-.183.264-.2741.596-.2741.9968 0 .7815.2457 1.3226.739 1.6226.4919.3003 1.1575.4503 1.9968.4503zm-.2734-12.30558c1.0941 0 2.0148.136 2.7634.40874.7471.27302 1.3446.65521 1.7919 1.14677.4471.49023.7666 1.0869.9576 1.78699.1919.70008.2873 1.46898.2873 2.30518v8.6495c-.5114.1093-1.2818.2417-2.3117.3964-1.0305.1537-2.1936.2321-3.4885.2321-.8571 0-1.6411-.0828-2.353-.2461-.7117-.1636-1.3179-.4274-1.8188-.7912-.5029-.3635-.894-.8362-1.1771-1.4195-.2825-.5817-.4242-1.2997-.4242-2.1548 0-.8185.1604-1.5099.4789-2.074.3188-.564.7526-1.023 1.3001-1.3779.5473-.3548 1.1802-.6093 1.9005-.7646.7207-.1536 1.4729-.2311 2.258-.2311.3648 0 .7473.0226 1.1492.0685.4008.0452.8293.122 1.2852.2315v-.5455c0-.3825-.0461-.7459-.1364-1.0912-.0917-.3459-.2508-.6506-.4789-.9146-.2285-.26372-.5293-.46792-.9027-.61424-.3746-.145-.8444-.21825-1.4086-.21825-.7667 0-1.469.05487-2.1072.16404-.6383.1087-1.1588.23607-1.5591.38144l-.4104-2.67394c.4191-.14471 1.0304-.29037 1.8324-.43602.8027-.14566 1.66-.21821 2.5721-.21821z"/><path d="m108.28 9.87763c-.274-.09013-.653-.18629-1.136-.28603-.484-.09984-1.044-.15-1.682-.15-.365 0-.753.03621-1.163.1087-.41.07316-.697.1367-.863.19129v11.43251h-3.31v-13.58831c.639-.23644 1.437-.45903 2.394-.66823.958-.20919 2.02-.31356 3.188-.31356.218 0 .474.0133.765.04092.292.02659.584.06345.876.10842.292.04591.574.10078.848.16422.274.06355.493.12275.656.17734z"/><path d="m120.564 9.22344c-.365.38144-.845.91826-1.436 1.60936-.594.6918-1.228 1.46-1.903 2.3058-.674.8458-1.354 1.7284-2.038 2.6467-.684.9189-1.3 1.7963-1.846 2.6334h7.387v2.7554h-11.382v-2.0463c.402-.7277.904-1.5186 1.505-2.3741.602-.8547 1.223-1.7137 1.86-2.5784.639-.8638 1.272-1.6866 1.902-2.4695.629-.7822 1.191-1.4637 1.683-2.04605h-6.594v-2.75643h10.862z"/></g></g></svg>