<svg width="236" height="42" viewBox="0 0 236 42" fill="none" xmlns="http://www.w3.org/2000/svg">
<path d="M10.5961 33.7567C2.11727 33.7567 0 28.6095 0 22.4871V19.8264H6.92033V22.4871C6.92033 25.503 7.61302 27.2322 10.1649 27.2322C12.7167 27.2322 13.4094 25.503 13.4094 22.4871V1.32514H21.1956V22.4871C21.1956 28.6095 19.075 33.7567 10.5994 33.7567H10.5961Z" fill="white"/>
<path d="M45.8515 10.3329V33.0463H38.9312V29.7623H38.8429C37.6765 31.8466 35.5135 33.7534 31.5763 33.7534C27.2927 33.7534 24.3945 30.8682 24.3945 25.6807V10.3329H31.3149V23.4188C31.3149 26.8335 32.4813 27.9896 34.775 27.9896C37.4151 27.9896 38.9279 26.6157 38.9279 23.4657V10.3329H45.8482H45.8515Z" fill="white"/>
<path d="M68.7003 26.3474C68.7003 31.1394 65.1519 33.7566 59.0125 33.7566C51.0956 33.7566 48.07 30.1174 47.8511 25.5063H54.3401C54.5558 27.7683 56.0261 28.8775 58.7511 28.8775C60.6985 28.8775 61.78 28.2106 61.78 26.9271C61.78 24.9768 59.7052 24.7087 56.1993 23.9112C52.4352 23.0667 48.2824 21.6493 48.2824 16.9008C48.2824 12.7757 51.7425 9.62564 57.9702 9.62564C65.0637 9.62564 67.8312 13.3085 68.0501 17.2996H61.561C61.3454 15.4799 60.3946 14.5048 58.1434 14.5048C56.196 14.5048 55.2027 15.2152 55.2027 16.3244C55.2027 17.9229 56.5881 17.9664 60.0025 18.7204C64.371 19.6956 68.697 21.2036 68.697 26.3508L68.7003 26.3474Z" fill="white"/>
<path d="M79.4925 15.6578V25.0642C79.4925 27.6378 80.4008 27.6378 83.3415 27.6378V32.9627C82.0868 33.2274 81.0053 33.4519 79.0579 33.4519C73.9968 33.4519 72.5689 30.7007 72.5689 25.6004V15.6645H69.4976V10.3397H72.5689V3.99612H79.4892V10.3397H83.3382V15.6645H79.4892L79.4925 15.6578Z" fill="white"/>
<path d="M101.171 7.13935C96.0252 7.13935 94.2935 11.2209 94.2935 17.1657C94.2935 23.1105 96.0252 27.2356 101.171 27.2356C105.324 27.2356 106.88 24.7056 107.399 21.1568H115.185C114.493 28.6096 109.993 33.7568 101.518 33.7568C91.7417 33.7568 86.5073 26.7464 86.5073 17.1657C86.5073 7.58501 91.7417 0.618164 101.518 0.618164C109.954 0.618164 114.45 5.76542 115.185 13.1277H107.399C106.837 9.66605 105.278 7.13935 101.171 7.13935Z" fill="white"/>
<path d="M128.078 14.5048C125.569 14.5048 124.357 15.48 124.141 17.6548H117.652C117.868 13.3085 120.897 9.62564 128.121 9.62564C134.348 9.62564 137.809 12.1088 137.809 19.2532V29.6784C137.809 30.8747 138.24 31.3639 139.106 31.3639V33.0495C137.72 33.5824 136.469 33.76 135.084 33.76C131.97 33.76 131.104 32.252 131.104 30.6535H131.016C129.588 32.3391 126.993 33.76 124.053 33.76C119.38 33.76 116.786 31.0523 116.786 27.2388C116.786 22.7149 120.031 20.6305 125.219 19.5649C128.075 18.9885 130.885 18.5428 130.885 16.6361C130.885 15.3057 129.977 14.5081 128.072 14.5081L128.078 14.5048ZM130.891 24.7523V22.0011C130.026 22.3563 128.944 22.6679 127.343 23.0232C124.618 23.6431 123.71 24.7992 123.71 26.2167C123.71 28.0799 124.791 28.8775 126.477 28.8775C129.46 28.8775 130.888 26.9272 130.888 24.7523H130.891Z" fill="white"/>
<path d="M161.062 26.3474C161.062 31.1394 157.514 33.7566 151.374 33.7566C143.457 33.7566 140.432 30.1174 140.213 25.5063H146.702C146.918 27.7683 148.388 28.8775 151.113 28.8775C153.06 28.8775 154.142 28.2106 154.142 26.9271C154.142 24.9768 152.067 24.7087 148.561 23.9112C144.797 23.0667 140.644 21.6493 140.644 16.9008C140.644 12.7757 144.104 9.62564 150.332 9.62564C157.426 9.62564 160.193 13.3085 160.412 17.2996H153.923C153.707 15.4799 152.756 14.5048 150.505 14.5048C148.558 14.5048 147.565 15.2152 147.565 16.3244C147.565 17.9229 148.95 17.9664 152.364 18.7204C156.733 19.6956 161.059 21.2036 161.059 26.3508L161.062 26.3474Z" fill="white"/>
<path d="M163.464 4.47853C163.464 2.43774 164.977 1.32853 166.925 1.32853C168.872 1.32853 170.385 2.43774 170.385 4.47853C170.385 6.51933 168.872 7.62854 166.925 7.62854C164.977 7.62854 163.464 6.56289 163.464 4.47853ZM170.385 10.3328V33.0463H163.464V10.3328H170.385Z" fill="white"/>
<path d="M195.213 17.6983V33.0462H188.293V19.9603C188.293 16.5456 187.127 15.3895 184.833 15.3895C182.193 15.3895 180.68 16.7634 180.68 19.9134V33.0462H173.76V10.3327H180.68V13.6168H180.765C181.932 11.5324 184.095 9.62564 188.032 9.62564C192.315 9.62564 195.213 12.5109 195.213 17.6983Z" fill="white"/>
<path d="M209.462 9.62564C202.065 9.62564 197.611 14.6388 197.611 21.6928C197.611 28.7468 202.068 33.76 209.462 33.76C216.856 33.76 221.271 28.7468 221.271 21.6928C221.271 14.6388 216.814 9.62564 209.462 9.62564ZM216.807 21.6928C210.897 24.5445 209.443 30.2615 209.443 30.2615C209.443 30.2615 207.985 24.5445 202.078 21.6928C207.989 18.841 209.443 13.1242 209.443 13.1242C209.443 13.1242 210.9 18.841 216.807 21.6928Z" fill="white"/>
<path d="M236 33.0495C230.089 30.1978 228.635 24.4809 228.635 24.4809C228.635 24.4809 227.178 30.1978 221.271 33.0495C227.181 35.9013 228.635 41.6182 228.635 41.6182C228.635 41.6182 230.092 35.9013 236 33.0495Z" fill="#EFB400"/>
</svg>
